# Blender v2.80 (sub 75) OBJ File: 'wands.blend'
# www.blender.org
mtllib staff_var3.mtl
o STAFF_VAR3_Cube.009
v 0.468750 1.750000 0.531250
v 0.406250 1.812500 0.593750
v 0.406250 1.812500 0.406250
v 0.593750 1.812500 0.406250
v 0.593750 1.812500 0.593750
v 0.500000 0.031250 0.500000
v 0.468750 1.750000 0.468750
v 0.531250 1.750000 0.531250
v 0.531250 1.750000 0.468750
v 0.468750 0.062500 0.531250
v 0.468750 0.062500 0.468750
v 0.531250 0.062500 0.468750
v 0.531250 0.062500 0.531250
v 0.468750 0.125000 0.531250
v 0.468750 1.625000 0.531250
v 0.468750 1.687500 0.531250
v 0.468750 1.687500 0.468750
v 0.468750 1.625000 0.468750
v 0.468750 0.125000 0.468750
v 0.531250 1.687500 0.468750
v 0.531250 1.625000 0.468750
v 0.531250 0.125000 0.468750
v 0.531250 1.687500 0.531250
v 0.531250 1.625000 0.531250
v 0.531250 0.125000 0.531250
v 0.468750 0.625000 0.531250
v 0.468750 1.125000 0.531250
v 0.531250 1.125000 0.468750
v 0.531250 0.625000 0.468750
v 0.531250 1.125000 0.531250
v 0.531250 0.625000 0.531250
v 0.468750 1.125000 0.468750
v 0.468750 0.625000 0.468750
v 0.468750 1.562500 0.531250
v 0.531250 1.562500 0.468750
v 0.531250 1.562500 0.531250
v 0.468750 1.562500 0.468750
v 0.531250 0.187500 0.468750
v 0.531250 0.187500 0.531250
v 0.468750 0.187500 0.468750
v 0.468750 0.187500 0.531250
v 0.625000 1.750000 0.531250
v 0.625000 1.750000 0.468750
v 0.687500 1.750000 0.531250
v 0.687500 1.750000 0.468750
v 0.656250 1.875000 0.500000
v 0.656250 1.687500 0.500000
v 0.375000 1.750000 0.468750
v 0.375000 1.750000 0.531250
v 0.312500 1.750000 0.468750
v 0.312500 1.750000 0.531250
v 0.343750 1.875000 0.500000
v 0.343750 1.687500 0.500000
v 0.531250 1.750000 0.374970
v 0.468750 1.750000 0.374970
v 0.531250 1.750000 0.312470
v 0.468750 1.750000 0.312470
v 0.500000 1.875000 0.343720
v 0.500000 1.687500 0.343720
v 0.468750 1.750000 0.625000
v 0.531250 1.750000 0.625000
v 0.468750 1.750000 0.687500
v 0.531250 1.750000 0.687500
v 0.500000 1.875000 0.656250
v 0.500000 1.687500 0.656250
v 0.562500 1.875000 0.500000
v 0.562500 1.875000 0.437500
v 0.531250 2.000000 0.468750
v 0.562500 1.812500 0.437500
v 0.562500 1.812500 0.500000
v 0.500000 1.812500 0.437500
v 0.500000 1.875000 0.437500
v 0.437500 1.875000 0.437500
v 0.468750 2.000000 0.468750
v 0.437500 1.812500 0.437500
v 0.437500 1.875000 0.500000
v 0.437500 1.875000 0.562500
v 0.468750 2.000000 0.531250
v 0.437500 1.812500 0.562500
v 0.437500 1.812500 0.500000
v 0.500000 1.812500 0.562500
v 0.500000 1.875000 0.500000
v 0.500000 1.875000 0.562500
v 0.562500 1.875000 0.562500
v 0.531250 2.000000 0.531250
v 0.562500 1.812500 0.562500
v 0.531250 1.937500 0.531250
v 0.468750 1.937500 0.531250
v 0.531250 1.937500 0.468750
v 0.468750 1.937500 0.468750
v 0.500000 2.062500 0.500000
v 0.531250 1.875000 0.531250
v 0.468750 1.875000 0.468750
v 0.531250 1.875000 0.468750
v 0.468750 1.875000 0.531250
vt 0.125000 0.750000
vt 0.500000 0.750000
vt 0.375000 0.750000
vt 0.250000 0.750000
vt 0.000000 0.625000
vt 0.375000 0.625000
vt 0.375000 1.000000
vt 0.000000 1.000000
vt 0.250000 0.875000
vt 0.125000 0.875000
vt 0.000000 1.000000
vt 0.375000 1.000000
vt 0.250000 0.875000
vt 0.125000 0.875000
vt 0.625000 0.625000
vt 0.625000 0.750000
vt 0.500000 0.625000
vt 1.000000 0.625000
vt 1.000000 0.750000
vt 0.875000 0.750000
vt 0.875000 0.625000
vt 0.750000 0.750000
vt 0.750000 0.625000
vt 0.937500 0.562500
vt 1.000000 0.625000
vt 0.875000 0.625000
vt 0.812501 0.562500
vt 0.875000 0.625000
vt 0.750000 0.625000
vt 0.812501 0.437500
vt 0.875000 0.500000
vt 0.750000 0.500000
vt 0.750000 0.625000
vt 0.250000 0.750000
vt 0.250000 0.875000
vt 0.125000 0.875000
vt 0.125000 0.750000
vt 0.750000 0.625000
vt 0.750000 0.750000
vt 0.625000 0.750000
vt 0.625000 0.625000
vt 0.250000 0.875000
vt 0.250000 1.000000
vt 0.125000 1.000000
vt 0.125000 0.875000
vt 0.375000 0.750000
vt 0.375000 0.875000
vt 0.875000 0.625000
vt 0.875000 0.750000
vt 0.375000 0.875000
vt 0.375000 1.000000
vt 0.500000 0.750000
vt 0.500000 0.875000
vt 1.000000 0.625000
vt 1.000000 0.750000
vt 0.500000 0.875000
vt 0.500000 1.000000
vt 0.000000 0.875000
vt 0.000000 0.750000
vt 0.500000 0.750000
vt 0.500000 0.625000
vt 0.000000 1.000000
vt 0.000000 0.875000
vt 0.375000 1.000000
vt 0.250000 1.000000
vt 0.250000 0.125000
vt 0.375000 0.125000
vt 0.250000 0.000000
vt 0.250000 1.000000
vt 0.125000 1.000000
vt 0.125000 0.000000
vt 0.000000 1.000000
vt 0.000000 0.000000
vt 0.500000 0.000000
vt 0.500000 1.000000
vt 0.375000 1.000000
vt 0.375000 0.000000
vt 0.125000 0.000000
vt 0.125000 0.875000
vt 0.000000 0.875000
vt 0.000000 0.000000
vt 0.500000 0.000000
vt 0.500000 0.875000
vt 0.375000 0.875000
vt 0.375000 0.000000
vt 0.250000 0.875000
vt 0.250000 0.000000
vt 0.125000 1.000000
vt 0.125000 0.125000
vt 0.000000 1.000000
vt 0.000000 0.125000
vt 0.500000 1.000000
vt 0.500000 0.125000
vt 1.000000 0.625000
vt 1.000000 0.750000
vt 0.875000 0.750000
vt 0.875000 0.625000
vt 0.625000 0.625000
vt 0.625000 0.750000
vt 0.500000 0.750000
vt 0.500000 0.625000
vt 0.750000 0.625000
vt 0.750000 0.750000
vt 1.000000 0.625000
vt 0.875000 0.625000
vt 0.937500 0.375000
vt 0.750000 0.625000
vt 0.750000 0.500000
vt 1.000000 0.562500
vt 1.000000 0.625000
vt 0.875000 0.625000
vt 0.750000 0.625000
vt 0.750000 0.500000
vt 0.875000 0.375000
vt 0.875000 0.500000
vt 0.750000 0.437500
vt 0.875000 0.625000
vt 0.750000 0.562500
vt 0.875000 0.375000
vt 0.875000 0.500000
vt 0.875000 0.625000
vt 1.000000 0.625000
vt 0.875000 0.625000
vt 0.937500 0.375000
vt 0.750000 0.625000
vt 0.750000 0.500000
vt 1.000000 0.562500
vt 1.000000 0.625000
vt 0.875000 0.625000
vt 0.750000 0.625000
vt 0.750000 0.500000
vt 0.875000 0.375000
vt 0.875000 0.500000
vt 0.750000 0.437500
vt 0.875000 0.625000
vt 0.750000 0.562500
vt 0.875000 0.375000
vt 0.875000 0.500000
vt 0.875000 0.625000
vt 1.000000 0.625000
vt 0.875000 0.625000
vt 0.937500 0.375000
vt 0.750000 0.625000
vt 0.750000 0.500000
vt 1.000000 0.562500
vt 1.000000 0.625000
vt 0.875000 0.625000
vt 0.750000 0.625000
vt 0.750000 0.500000
vt 0.875000 0.375000
vt 0.875000 0.500000
vt 0.750000 0.437500
vt 0.875000 0.625000
vt 0.750000 0.562500
vt 0.875000 0.375000
vt 0.875000 0.500000
vt 0.875000 0.625000
vt 1.000000 0.625000
vt 0.875000 0.625000
vt 0.937500 0.375000
vt 0.750000 0.625000
vt 0.750000 0.500000
vt 1.000000 0.562500
vt 1.000000 0.625000
vt 0.875000 0.625000
vt 0.750000 0.625000
vt 0.750000 0.500000
vt 0.875000 0.375000
vt 0.875000 0.500000
vt 0.750000 0.437500
vt 0.875000 0.625000
vt 0.750000 0.562500
vt 0.875000 0.375000
vt 0.875000 0.500000
vt 0.875000 0.625000
vt 1.000000 0.625000
vt 0.875000 0.625000
vt 0.937500 0.375000
vt 0.750000 0.625000
vt 0.750000 0.500000
vt 1.000000 0.562500
vt 1.000000 0.625000
vt 0.875000 0.625000
vt 0.750000 0.625000
vt 0.750000 0.500000
vt 0.875000 0.500000
vt 0.750000 0.500000
vt 0.750000 0.375000
vt 0.875000 0.375000
vt 0.750000 0.625000
vt 0.750000 0.500000
vt 0.875000 0.500000
vt 0.937500 0.375000
vt 0.750000 0.500000
vt 1.000000 0.562500
vt 1.000000 0.625000
vt 0.875000 0.625000
vt 0.750000 0.625000
vt 0.875000 0.500000
vt 0.750000 0.500000
vt 0.750000 0.375000
vt 0.875000 0.375000
vt 0.750000 0.625000
vt 0.750000 0.500000
vt 0.875000 0.500000
vt 0.937500 0.375000
vt 0.750000 0.500000
vt 1.000000 0.562500
vt 1.000000 0.625000
vt 0.875000 0.625000
vt 0.750000 0.625000
vt 0.875000 0.500000
vt 0.750000 0.500000
vt 0.750000 0.375000
vt 0.875000 0.375000
vt 0.750000 0.625000
vt 0.750000 0.500000
vt 0.875000 0.500000
vt 0.937500 0.375000
vt 0.750000 0.500000
vt 1.000000 0.562500
vt 1.000000 0.625000
vt 0.875000 0.500000
vt 0.750000 0.500000
vt 0.750000 0.375000
vt 0.875000 0.375000
vt 0.750000 0.625000
vt 0.750000 0.500000
vt 0.875000 0.500000
vt 1.000000 0.625000
vt 0.875000 0.625000
vt 0.937500 0.375000
vt 0.750000 0.625000
vt 0.750000 0.500000
vt 1.000000 0.562500
vt 1.000000 0.625000
vt 0.875000 0.625000
vt 0.750000 0.625000
vt 0.750000 0.500000
vt 0.875000 0.500000
vt 0.750000 0.500000
vt 0.750000 0.375000
vt 0.875000 0.375000
vt 0.875000 0.500000
vt 0.750000 0.500000
vt 0.750000 0.375000
vt 0.875000 0.375000
vt 0.750000 0.625000
vt 0.750000 0.500000
vt 0.875000 0.500000
vt 0.750000 0.625000
vt 0.750000 0.500000
vt 0.875000 0.500000
vn 0.0000 -1.0000 0.0000
vn 0.0000 1.0000 0.0000
vn 0.0000 -0.7071 0.7071
vn 0.0000 -0.7071 -0.7071
vn 0.7071 -0.7071 0.0000
vn -0.7071 -0.7071 0.0000
vn -1.0000 0.0000 0.0000
vn 0.0000 0.0000 -1.0000
vn 1.0000 0.0000 0.0000
vn 0.0000 0.0000 1.0000
vn 0.0000 0.2425 0.9701
vn 0.9701 0.2425 0.0000
vn 0.0000 0.2425 -0.9701
vn -0.9701 0.2425 0.0000
vn -0.8944 -0.4472 0.0000
vn 0.0000 -0.4472 -0.8944
vn 0.8944 -0.4472 0.0000
vn 0.0000 -0.4472 0.8944
usemtl MAIN
s off
f 1/1/1 7/2/1 9/3/1 8/4/1
f 2/5/2 5/6/2 4/7/2 3/8/2
f 1/9/3 8/10/3 5/11/3 2/12/3
f 9/13/4 7/14/4 3/8/4 4/7/4
f 8/10/5 9/13/5 4/7/5 5/11/5
f 7/14/6 1/9/6 2/12/6 3/8/6
f 16/15/7 1/16/7 7/2/7 17/17/7
f 17/18/8 7/19/8 9/20/8 20/21/8
f 20/21/9 9/20/9 8/22/9 23/23/9
f 23/23/10 8/22/10 1/16/10 16/15/10
f 6/24/3 13/25/3 10/26/3
f 6/27/5 12/28/5 13/29/5
f 6/30/4 11/31/4 12/32/4
f 6/27/6 10/26/6 11/33/6
f 13/34/10 25/35/10 14/36/10 10/37/10
f 36/38/10 24/39/10 15/40/10 34/41/10
f 24/42/10 23/43/10 16/44/10 15/45/10
f 12/46/9 22/47/9 25/35/9 13/34/9
f 35/48/9 21/49/9 24/39/9 36/38/9
f 21/50/9 20/51/9 23/43/9 24/42/9
f 11/52/8 19/53/8 22/47/8 12/46/8
f 37/54/8 18/55/8 21/49/8 35/48/8
f 18/56/8 17/57/8 20/51/8 21/50/8
f 10/37/7 14/36/7 19/58/7 11/59/7
f 34/41/7 15/40/7 18/60/7 37/61/7
f 15/45/7 16/44/7 17/62/7 18/63/7
f 26/64/7 33/65/7 40/66/7 41/67/7
f 26/68/7 27/69/7 32/70/7 33/71/7
f 33/71/8 32/70/8 28/72/8 29/73/8
f 29/74/9 28/75/9 30/76/9 31/77/9
f 31/77/10 30/76/10 27/69/10 26/68/10
f 27/78/7 34/79/7 37/80/7 32/81/7
f 32/82/8 37/83/8 35/84/8 28/85/8
f 28/85/9 35/84/9 36/86/9 30/87/9
f 30/87/10 36/86/10 34/79/10 27/78/10
f 33/65/8 29/88/8 38/89/8 40/66/8
f 29/88/9 31/90/9 39/91/9 38/89/9
f 31/92/10 26/64/10 41/67/10 39/93/10
f 25/94/10 39/95/10 41/96/10 14/97/10
f 22/98/9 38/99/9 39/100/9 25/101/9
f 19/102/8 40/103/8 38/99/8 22/98/8
f 14/97/7 41/96/7 40/103/7 19/102/7
f 42/104/11 44/105/11 46/106/11
f 44/107/12 45/108/12 46/109/12
f 45/110/13 43/111/13 46/106/13
f 43/112/14 42/113/14 46/109/14
f 42/114/15 43/115/15 47/116/15
f 43/115/16 45/117/16 47/118/16
f 45/119/17 44/120/17 47/116/17
f 44/120/18 42/121/18 47/118/18
f 48/122/13 50/123/13 52/124/13
f 50/125/14 51/126/14 52/127/14
f 51/128/11 49/129/11 52/124/11
f 49/130/12 48/131/12 52/127/12
f 48/132/17 49/133/17 53/134/17
f 49/133/18 51/135/18 53/136/18
f 51/137/15 50/138/15 53/134/15
f 50/138/16 48/139/16 53/136/16
f 54/140/12 56/141/12 58/142/12
f 56/143/13 57/144/13 58/145/13
f 57/146/14 55/147/14 58/142/14
f 55/148/11 54/149/11 58/145/11
f 54/150/18 55/151/18 59/152/18
f 55/151/15 57/153/15 59/154/15
f 57/155/16 56/156/16 59/152/16
f 56/156/17 54/157/17 59/154/17
f 60/158/14 62/159/14 64/160/14
f 62/161/11 63/162/11 64/163/11
f 63/164/12 61/165/12 64/160/12
f 61/166/13 60/167/13 64/163/13
f 60/168/16 61/169/16 65/170/16
f 61/169/17 63/171/17 65/172/17
f 63/173/18 62/174/18 65/170/18
f 62/174/15 60/175/15 65/172/15
f 82/176/11 66/177/11 68/178/11
f 66/179/12 67/180/12 68/181/12
f 67/182/13 72/183/13 68/178/13
f 72/184/14 82/185/14 68/181/14
f 67/186/9 66/187/9 70/188/9 69/189/9
f 72/183/8 67/190/8 69/191/8 71/192/8
f 82/176/12 72/183/12 74/193/12
f 72/184/13 73/194/13 74/195/13
f 73/196/14 76/197/14 74/193/14
f 76/198/11 82/185/11 74/195/11
f 73/199/8 72/200/8 71/201/8 75/202/8
f 76/197/7 73/203/7 75/204/7 80/205/7
f 82/176/13 76/197/13 78/206/13
f 76/198/14 77/207/14 78/208/14
f 77/209/11 83/210/11 78/206/11
f 83/211/12 82/185/12 78/208/12
f 77/212/7 76/213/7 80/214/7 79/215/7
f 83/210/10 77/216/10 79/217/10 81/218/10
f 82/176/14 83/210/14 85/219/14
f 83/211/11 84/220/11 85/221/11
f 84/222/12 66/177/12 85/219/12
f 66/179/13 82/185/13 85/221/13
f 84/223/10 83/224/10 81/225/10 86/226/10
f 66/177/9 84/227/9 86/228/9 70/229/9
f 87/230/12 89/231/12 91/232/12
f 89/233/13 90/234/13 91/235/13
f 90/236/14 88/237/14 91/232/14
f 88/238/11 87/239/11 91/235/11
f 90/240/8 89/241/8 94/242/8 93/243/8
f 87/244/10 88/245/10 95/246/10 92/247/10
f 88/237/7 90/248/7 93/249/7 95/250/7
f 89/231/9 87/251/9 92/252/9 94/253/9
