# Blender v2.80 (sub 75) OBJ File: 'wands.blend'
# www.blender.org
mtllib wand_var2.mtl
o WAND_VAR2_Cube.006
v 0.500000 0.906250 0.500000
v 0.457763 0.981723 0.528489
v 0.503491 1.017924 0.550953
v 0.454065 1.017924 0.477676
v 0.499793 1.054126 0.500140
v 0.500207 0.945874 0.499860
v 0.545935 0.982076 0.522324
v 0.496509 0.982076 0.449047
v 0.542237 1.018277 0.471511
v 0.500000 0.031250 0.500000
v 0.468750 0.875000 0.531250
v 0.468750 0.875000 0.468750
v 0.531250 0.875000 0.531250
v 0.531250 0.875000 0.468750
v 0.468750 0.062500 0.531250
v 0.468750 0.062500 0.468750
v 0.531250 0.062500 0.468750
v 0.531250 0.062500 0.531250
v 0.468750 0.125000 0.531250
v 0.468750 0.750000 0.531250
v 0.468750 0.812500 0.531250
v 0.468750 0.812500 0.468750
v 0.468750 0.750000 0.468750
v 0.468750 0.125000 0.468750
v 0.531250 0.812500 0.468750
v 0.531250 0.750000 0.468750
v 0.531250 0.125000 0.468750
v 0.531250 0.812500 0.531250
v 0.531250 0.750000 0.531250
v 0.531250 0.125000 0.531250
v 0.468750 0.250000 0.531250
v 0.531250 0.250000 0.468750
v 0.531250 0.250000 0.531250
v 0.468750 0.250000 0.468750
v 0.446653 0.812500 0.446653
v 0.446653 0.750000 0.446653
v 0.553347 0.812500 0.446653
v 0.553347 0.750000 0.446653
v 0.553347 0.812500 0.553347
v 0.553347 0.750000 0.553347
v 0.446653 0.812500 0.553347
v 0.446653 0.750000 0.553347
vt 0.500000 0.500000
vt 0.625000 0.500000
vt 0.625000 0.625000
vt 0.500000 0.625000
vt 0.500000 0.125000
vt 0.625000 0.125000
vt 0.625000 0.250000
vt 0.500000 0.250000
vt 0.625000 0.375000
vt 0.500000 0.375000
vt 0.750000 0.625000
vt 0.750000 0.750000
vt 0.625000 0.750000
vt 0.625000 0.625000
vt 0.823223 0.176777
vt 0.676777 0.176777
vt 0.625000 0.125000
vt 0.875000 0.125000
vt 0.875000 0.625000
vt 0.875000 0.750000
vt 0.676777 0.323223
vt 0.625000 0.375000
vt 1.000000 0.625000
vt 1.000000 0.750000
vt 0.676777 0.176777
vt 0.823223 0.176777
vt 0.875000 0.125000
vt 0.625000 0.125000
vt 0.500000 0.750000
vt 0.500000 0.625000
vt 0.823223 0.323223
vt 0.875000 0.375000
vt 0.125000 0.750000
vt 0.125000 1.000000
vt 0.000000 1.000000
vt 0.000000 0.750000
vt 0.500000 1.000000
vt 0.375000 1.000000
vt 0.375000 0.750000
vt 0.250000 1.000000
vt 0.250000 0.750000
vt 0.125000 0.000000
vt 0.125000 1.000000
vt 0.000000 1.000000
vt 0.000000 0.000000
vt 0.500000 0.000000
vt 0.500000 1.000000
vt 0.375000 1.000000
vt 0.375000 0.000000
vt 0.250000 1.000000
vt 0.250000 0.000000
vt 0.625000 0.625000
vt 0.625000 0.750000
vt 0.875000 0.750000
vt 0.875000 0.625000
vt 0.875000 0.625000
vt 0.875000 0.750000
vt 1.000000 0.625000
vt 1.000000 0.750000
vt 0.750000 0.750000
vt 0.750000 0.625000
vt 0.750000 0.625000
vt 0.750000 0.750000
vt 0.676777 0.323223
vt 0.625000 0.375000
vt 0.823223 0.323223
vt 0.875000 0.375000
vt 0.187500 0.218750
vt 0.250000 0.218750
vt 0.218745 0.250000
vt 0.187500 0.156250
vt 0.250000 0.156250
vt 0.218745 0.187500
vt 0.187500 0.218750
vt 0.250000 0.218750
vt 0.125000 0.218750
vt 0.156245 0.250000
vt 0.625000 0.562500
vt 0.687500 0.562500
vt 0.687500 0.625000
vt 0.625000 0.625000
vt 0.500000 0.562500
vt 0.562500 0.562500
vt 0.562500 0.625000
vt 0.500000 0.625000
vt 0.500000 0.437500
vt 0.562500 0.437500
vt 0.562500 0.500000
vt 0.500000 0.500000
vt 0.375000 0.562500
vt 0.437500 0.562500
vt 0.437500 0.625000
vt 0.375000 0.625000
vt 0.375000 0.437500
vt 0.437500 0.437500
vt 0.437500 0.500000
vt 0.375000 0.500000
vt 0.625000 0.437500
vt 0.687500 0.437500
vt 0.687500 0.500000
vt 0.625000 0.500000
vt 0.156250 0.218750
vt 0.187500 0.250000
vt 0.125000 0.250000
vt 0.218750 0.218750
vt 0.250000 0.250000
vt 0.218750 0.156250
vt 0.250000 0.187500
vt 0.187500 0.187500
vt 0.218750 0.218750
vt 0.250000 0.250000
vt 0.187500 0.250000
vn -1.0000 0.0000 0.0000
vn 0.0000 0.0000 -1.0000
vn 1.0000 0.0000 0.0000
vn 0.0000 0.0000 1.0000
vn 0.0000 1.0000 0.0000
vn 0.0000 -1.0000 0.0000
vn -0.7071 0.7071 0.0000
vn 0.0000 0.7071 -0.7071
vn 0.7071 0.7071 0.0000
vn 0.0000 0.7071 0.7071
vn -0.6791 0.5736 0.4581
vn -0.0592 0.5792 -0.8130
vn 0.6791 -0.5736 -0.4581
vn 0.0592 -0.5792 0.8130
vn -0.7317 -0.5792 -0.3594
vn 0.7317 0.5792 0.3594
vn 0.0000 -0.7071 0.7071
vn 0.7071 -0.7071 0.0000
vn 0.0000 -0.7071 -0.7071
vn -0.7071 -0.7071 0.0000
usemtl MAIN
s off
f 21/1/1 11/2/1 12/3/1 22/4/1
f 22/5/2 12/6/2 14/7/2 25/8/2
f 25/8/3 14/7/3 13/9/3 28/10/3
f 28/10/4 13/9/4 11/2/4 21/1/4
f 18/11/4 30/12/4 19/13/4 15/14/4
f 28/15/5 21/16/5 41/17/5 39/18/5
f 17/19/3 27/20/3 30/12/3 18/11/3
f 21/16/5 22/21/5 35/22/5 41/17/5
f 16/23/2 24/24/2 27/20/2 17/19/2
f 20/25/6 29/26/6 40/27/6 42/28/6
f 15/14/1 19/13/1 24/29/1 16/30/1
f 25/31/5 28/15/5 39/18/5 37/32/5
f 19/33/1 31/34/1 34/35/1 24/36/1
f 24/29/2 34/37/2 32/38/2 27/39/2
f 27/39/3 32/38/3 33/40/3 30/41/3
f 31/42/1 20/43/1 23/44/1 34/45/1
f 34/46/2 23/47/2 26/48/2 32/49/2
f 32/49/3 26/48/3 29/50/3 33/51/3
f 33/51/4 29/50/4 20/43/4 31/42/4
f 40/52/4 39/53/4 41/54/4 42/55/4
f 38/56/3 37/57/3 39/53/3 40/52/3
f 36/58/2 35/59/2 37/60/2 38/61/2
f 42/62/1 41/63/1 35/59/1 36/58/1
f 22/21/5 25/31/5 37/32/5 35/22/5
f 23/64/6 20/25/6 42/28/6 36/65/6
f 29/26/6 26/66/6 38/67/6 40/27/6
f 26/66/6 23/64/6 36/65/6 38/67/6
f 30/41/4 33/40/4 31/34/4 19/33/4
usemtl CHIMERITE
f 12/68/7 11/69/7 1/70/7
f 14/71/8 12/72/8 1/73/8
f 13/74/9 14/75/9 1/70/9
f 11/76/10 13/74/10 1/77/10
f 2/78/11 3/79/11 5/80/11 4/81/11
f 4/82/12 5/83/12 9/84/12 8/85/12
f 8/86/13 9/87/13 7/88/13 6/89/13
f 6/90/14 7/91/14 3/92/14 2/93/14
f 4/94/15 8/95/15 6/96/15 2/97/15
f 9/98/16 5/99/16 3/100/16 7/101/16
f 10/102/17 18/103/17 15/104/17
f 10/105/18 17/106/18 18/103/18
f 10/107/19 16/108/19 17/109/19
f 10/110/20 15/111/20 16/112/20
