# Blender v2.80 (sub 75) OBJ File: 'mana_crystal.blend'
# www.blender.org
mtllib mana_crystal_base.mtl
o BASE_Cube
v 0.812500 0.000000 1.000000
v 0.874500 0.312500 0.938000
v 0.812500 0.000000 0.812500
v 0.874500 0.312500 0.874500
v 1.000000 0.000000 1.000000
v 0.938000 0.312500 0.938000
v 1.000000 0.000000 0.812500
v 0.938000 0.312500 0.874500
v 0.812500 0.250000 1.000000
v 0.812500 0.250000 0.812500
v 1.000000 0.250000 0.812500
v 1.000000 0.250000 1.000000
v 0.839959 0.250000 0.972541
v 0.972541 0.250000 0.839959
v 0.839959 0.437500 0.972541
v 0.972541 0.437500 0.839959
v 0.839959 0.250000 0.972541
v 0.972541 0.250000 0.839959
v 0.839959 0.437500 0.972541
v 0.972541 0.437500 0.839959
v 1.000000 0.000000 0.187500
v 0.938000 0.312500 0.125500
v 0.812500 0.000000 0.187500
v 0.874500 0.312500 0.125500
v 1.000000 0.000000 0.000000
v 0.938000 0.312500 0.062000
v 0.812500 0.000000 0.000000
v 0.874500 0.312500 0.062000
v 1.000000 0.250000 0.187500
v 0.812500 0.250000 0.187500
v 0.812500 0.250000 0.000000
v 1.000000 0.250000 0.000000
v 0.972541 0.250000 0.160041
v 0.839959 0.250000 0.027459
v 0.972541 0.437500 0.160041
v 0.839959 0.437500 0.027459
v 0.972541 0.250000 0.160041
v 0.839959 0.250000 0.027459
v 0.972541 0.437500 0.160041
v 0.839959 0.437500 0.027459
v 0.187500 0.000000 0.000000
v 0.125500 0.312500 0.062000
v 0.187500 0.000000 0.187500
v 0.125500 0.312500 0.125500
v 0.000000 0.000000 0.000000
v 0.062000 0.312500 0.062000
v 0.000000 0.000000 0.187500
v 0.062000 0.312500 0.125500
v 0.187500 0.250000 0.000000
v 0.187500 0.250000 0.187500
v 0.000000 0.250000 0.187500
v 0.000000 0.250000 0.000000
v 0.160041 0.250000 0.027459
v 0.027459 0.250000 0.160041
v 0.160041 0.437500 0.027459
v 0.027459 0.437500 0.160041
v 0.160041 0.250000 0.027459
v 0.027459 0.250000 0.160041
v 0.160041 0.437500 0.027459
v 0.027459 0.437500 0.160041
v 0.000000 0.000000 0.812500
v 0.062000 0.312500 0.874500
v 0.187500 0.000000 0.812500
v 0.125500 0.312500 0.874500
v 0.000000 0.000000 1.000000
v 0.062000 0.312500 0.938000
v 0.187500 0.000000 1.000000
v 0.125500 0.312500 0.938000
v 0.000000 0.250000 0.812500
v 0.187500 0.250000 0.812500
v 0.187500 0.250000 1.000000
v 0.000000 0.250000 1.000000
v 0.027459 0.250000 0.839959
v 0.160041 0.250000 0.972541
v 0.027459 0.437500 0.839959
v 0.160041 0.437500 0.972541
v 0.027459 0.250000 0.839959
v 0.160041 0.250000 0.972541
v 0.027459 0.437500 0.839959
v 0.160041 0.437500 0.972541
vt 0.750000 0.250000
vt 0.750000 0.500000
vt 0.562500 0.500000
vt 0.562500 0.250000
vt 0.375000 0.500000
vt 0.375000 0.250000
vt 0.187500 0.500000
vt 0.187500 0.250000
vt 0.000000 0.500000
vt 0.000000 0.250000
vt 0.750000 0.250000
vt 0.937500 0.250000
vt 0.937500 0.437500
vt 0.750000 0.437500
vt 0.750000 0.437500
vt 0.812500 0.437500
vt 0.812500 0.500000
vt 0.750000 0.500000
vt 0.687500 0.562500
vt 0.625000 0.562500
vt 0.500000 0.562500
vt 0.437500 0.562500
vt 0.312500 0.562500
vt 0.250000 0.562500
vt 0.125000 0.562500
vt 0.062500 0.562500
vt -0.000000 0.812500
vt 0.187500 0.812500
vt 0.187500 1.000000
vt -0.000000 1.000000
vt -0.000000 0.812500
vt -0.000000 1.000000
vt 0.187500 1.000000
vt 0.187500 0.812500
vt 0.750000 0.250000
vt 0.750000 0.500000
vt 0.562500 0.500000
vt 0.562500 0.250000
vt 0.375000 0.500000
vt 0.375000 0.250000
vt 0.187500 0.500000
vt 0.187500 0.250000
vt 0.000000 0.500000
vt 0.000000 0.250000
vt 0.750000 0.250000
vt 0.937500 0.250000
vt 0.937500 0.437500
vt 0.750000 0.437500
vt 0.750000 0.437500
vt 0.812500 0.437500
vt 0.812500 0.500000
vt 0.750000 0.500000
vt 0.687500 0.562500
vt 0.625000 0.562500
vt 0.500000 0.562500
vt 0.437500 0.562500
vt 0.312500 0.562500
vt 0.250000 0.562500
vt 0.125000 0.562500
vt 0.062500 0.562500
vt -0.000000 0.812500
vt -0.000000 1.000000
vt 0.187500 1.000000
vt 0.187500 0.812500
vt -0.000000 0.812500
vt 0.187500 0.812500
vt 0.187500 1.000000
vt -0.000000 1.000000
vt 0.750000 0.250000
vt 0.750000 0.500000
vt 0.562500 0.500000
vt 0.562500 0.250000
vt 0.375000 0.500000
vt 0.375000 0.250000
vt 0.187500 0.500000
vt 0.187500 0.250000
vt 0.000000 0.500000
vt 0.000000 0.250000
vt 0.750000 0.250000
vt 0.937500 0.250000
vt 0.937500 0.437500
vt 0.750000 0.437500
vt 0.750000 0.437500
vt 0.812500 0.437500
vt 0.812500 0.500000
vt 0.750000 0.500000
vt 0.687500 0.562500
vt 0.625000 0.562500
vt 0.500000 0.562500
vt 0.437500 0.562500
vt 0.312500 0.562500
vt 0.250000 0.562500
vt 0.125000 0.562500
vt 0.062500 0.562500
vt -0.000000 0.812500
vt 0.187500 0.812500
vt 0.187500 1.000000
vt -0.000000 1.000000
vt -0.000000 0.812500
vt -0.000000 1.000000
vt 0.187500 1.000000
vt 0.187500 0.812500
vt 0.750000 0.250000
vt 0.750000 0.500000
vt 0.562500 0.500000
vt 0.562500 0.250000
vt 0.375000 0.500000
vt 0.375000 0.250000
vt 0.187500 0.500000
vt 0.187500 0.250000
vt 0.000000 0.500000
vt 0.000000 0.250000
vt 0.750000 0.250000
vt 0.937500 0.250000
vt 0.937500 0.437500
vt 0.750000 0.437500
vt 0.750000 0.437500
vt 0.812500 0.437500
vt 0.812500 0.500000
vt 0.750000 0.500000
vt 0.687500 0.562500
vt 0.625000 0.562500
vt 0.500000 0.562500
vt 0.437500 0.562500
vt 0.312500 0.562500
vt 0.250000 0.562500
vt 0.125000 0.562500
vt 0.062500 0.562500
vt -0.000000 0.812500
vt -0.000000 1.000000
vt 0.187500 1.000000
vt 0.187500 0.812500
vt -0.000000 0.812500
vt 0.187500 0.812500
vt 0.187500 1.000000
vt -0.000000 1.000000
vn -1.0000 0.0000 0.0000
vn 0.0000 0.0000 -1.0000
vn 1.0000 0.0000 0.0000
vn 0.0000 0.0000 1.0000
vn 0.0000 -1.0000 0.0000
vn 0.0000 1.0000 0.0000
vn -0.7099 0.7043 0.0000
vn 0.0000 0.7043 -0.7099
vn 0.7099 0.7043 0.0000
vn 0.0000 0.7043 0.7099
vn 0.7071 0.0000 0.7071
vn -0.7071 0.0000 -0.7071
vn -0.7071 0.0000 0.7071
vn 0.7071 0.0000 -0.7071
usemtl EXTENSION
s off
f 1/1/1 9/2/1 10/3/1 3/4/1
f 3/4/2 10/3/2 11/5/2 7/6/2
f 7/6/3 11/5/3 12/7/3 5/8/3
f 5/8/4 12/7/4 9/9/4 1/10/4
f 3/11/5 7/12/5 5/13/5 1/14/5
f 8/15/6 4/16/6 2/17/6 6/18/6
f 2/19/7 4/20/7 10/3/7 9/2/7
f 4/21/8 8/22/8 11/5/8 10/3/8
f 8/23/9 6/24/9 12/7/9 11/5/9
f 6/25/10 2/26/10 9/9/10 12/7/10
f 13/27/11 14/28/11 16/29/11 15/30/11
f 17/31/12 19/32/12 20/33/12 18/34/12
f 21/35/4 29/36/4 30/37/4 23/38/4
f 23/38/1 30/37/1 31/39/1 27/40/1
f 27/40/2 31/39/2 32/41/2 25/42/2
f 25/42/3 32/41/3 29/43/3 21/44/3
f 23/45/5 27/46/5 25/47/5 21/48/5
f 28/49/6 24/50/6 22/51/6 26/52/6
f 22/53/10 24/54/10 30/37/10 29/36/10
f 24/55/7 28/56/7 31/39/7 30/37/7
f 28/57/8 26/58/8 32/41/8 31/39/8
f 26/59/9 22/60/9 29/43/9 32/41/9
f 33/61/13 35/62/13 36/63/13 34/64/13
f 37/65/14 38/66/14 40/67/14 39/68/14
f 41/69/3 49/70/3 50/71/3 43/72/3
f 43/72/4 50/71/4 51/73/4 47/74/4
f 47/74/1 51/73/1 52/75/1 45/76/1
f 45/76/2 52/75/2 49/77/2 41/78/2
f 43/79/5 47/80/5 45/81/5 41/82/5
f 48/83/6 44/84/6 42/85/6 46/86/6
f 42/87/9 44/88/9 50/71/9 49/70/9
f 44/89/10 48/90/10 51/73/10 50/71/10
f 48/91/7 46/92/7 52/75/7 51/73/7
f 46/93/8 42/94/8 49/77/8 52/75/8
f 53/95/12 54/96/12 56/97/12 55/98/12
f 57/99/11 59/100/11 60/101/11 58/102/11
f 61/103/2 69/104/2 70/105/2 63/106/2
f 63/106/3 70/105/3 71/107/3 67/108/3
f 67/108/4 71/107/4 72/109/4 65/110/4
f 65/110/1 72/109/1 69/111/1 61/112/1
f 63/113/5 67/114/5 65/115/5 61/116/5
f 68/117/6 64/118/6 62/119/6 66/120/6
f 62/121/8 64/122/8 70/105/8 69/104/8
f 64/123/9 68/124/9 71/107/9 70/105/9
f 68/125/10 66/126/10 72/109/10 71/107/10
f 66/127/7 62/128/7 69/111/7 72/109/7
f 73/129/14 75/130/14 76/131/14 74/132/14
f 77/133/13 78/134/13 80/135/13 79/136/13
