# Blender v2.80 (sub 75) OBJ File: 'mana_crystal.blend'
# www.blender.org
mtllib mana_crystal_ring.mtl
o BINDING_RING_Cube.004
v 0.250000 0.031250 0.250000
v 0.312500 0.031250 -0.250000
v 0.312500 -0.031250 -0.250000
v 0.312500 0.093750 0.312500
v 0.250000 -0.093750 0.250000
v 0.250000 -0.093750 0.375000
v 0.375000 -0.093750 0.250000
v 0.375000 -0.093750 0.375000
v 0.281250 -0.155750 0.281250
v 0.281250 -0.155750 0.343750
v 0.343750 -0.155750 0.281250
v 0.343750 -0.155750 0.343750
v 0.312500 -0.031250 0.250000
v 0.312500 0.031250 0.250000
v 0.375000 -0.031250 0.250000
v 0.375000 0.031250 0.250000
v 0.250000 0.031250 0.375000
v 0.375000 0.031250 0.250000
v 0.375000 0.031250 0.375000
v 0.375000 -0.031250 -0.250000
v 0.375000 0.031250 -0.250000
v 0.370505 -0.253406 0.254495
v 0.254495 -0.253406 0.370505
v 0.370505 -0.089344 0.254495
v 0.254495 -0.089344 0.370505
v 0.370505 -0.253406 0.254495
v 0.254495 -0.253406 0.370505
v 0.370505 -0.089344 0.254495
v 0.254495 -0.089344 0.370505
v 0.250000 0.031250 -0.250000
v -0.250000 0.031250 -0.312500
v -0.250000 -0.031250 -0.312500
v 0.312500 0.093750 -0.312500
v 0.250000 -0.093750 -0.250000
v 0.375000 -0.093750 -0.250000
v 0.250000 -0.093750 -0.375000
v 0.375000 -0.093750 -0.375000
v 0.281250 -0.155750 -0.281250
v 0.343750 -0.155750 -0.281250
v 0.281250 -0.155750 -0.343750
v 0.343750 -0.155750 -0.343750
v 0.250000 -0.031250 -0.312500
v 0.250000 0.031250 -0.312500
v 0.250000 -0.031250 -0.375000
v 0.250000 0.031250 -0.375000
v 0.375000 0.031250 -0.250000
v 0.250000 0.031250 -0.375000
v 0.375000 0.031250 -0.375000
v -0.250000 -0.031250 -0.375000
v -0.250000 0.031250 -0.375000
v 0.254495 -0.253406 -0.370505
v 0.370505 -0.253406 -0.254495
v 0.254495 -0.089344 -0.370505
v 0.370505 -0.089344 -0.254495
v 0.254495 -0.253406 -0.370505
v 0.370505 -0.253406 -0.254495
v 0.254495 -0.089344 -0.370505
v 0.370505 -0.089344 -0.254495
v -0.250000 0.031250 -0.250000
v -0.312500 0.031250 0.250000
v -0.312500 -0.031250 0.250000
v -0.312500 0.093750 -0.312500
v -0.250000 -0.093750 -0.250000
v -0.250000 -0.093750 -0.375000
v -0.375000 -0.093750 -0.250000
v -0.375000 -0.093750 -0.375000
v -0.281250 -0.155750 -0.281250
v -0.281250 -0.155750 -0.343750
v -0.343750 -0.155750 -0.281250
v -0.343750 -0.155750 -0.343750
v -0.312500 -0.031250 -0.250000
v -0.312500 0.031250 -0.250000
v -0.375000 -0.031250 -0.250000
v -0.375000 0.031250 -0.250000
v -0.250000 0.031250 -0.375000
v -0.375000 0.031250 -0.250000
v -0.375000 0.031250 -0.375000
v -0.375000 -0.031250 0.250000
v -0.375000 0.031250 0.250000
v -0.370505 -0.253406 -0.254495
v -0.254495 -0.253406 -0.370505
v -0.370505 -0.089344 -0.254495
v -0.254495 -0.089344 -0.370505
v -0.370505 -0.253406 -0.254495
v -0.254495 -0.253406 -0.370505
v -0.370505 -0.089344 -0.254495
v -0.254495 -0.089344 -0.370505
v -0.250000 0.031250 0.250000
v 0.250000 0.031250 0.312500
v 0.250000 -0.031250 0.312500
v -0.312500 0.093750 0.312500
v -0.250000 -0.093750 0.250000
v -0.375000 -0.093750 0.250000
v -0.250000 -0.093750 0.375000
v -0.375000 -0.093750 0.375000
v -0.281250 -0.155750 0.281250
v -0.343750 -0.155750 0.281250
v -0.281250 -0.155750 0.343750
v -0.343750 -0.155750 0.343750
v -0.250000 -0.031250 0.312500
v -0.250000 0.031250 0.312500
v -0.250000 -0.031250 0.375000
v -0.250000 0.031250 0.375000
v -0.375000 0.031250 0.250000
v -0.250000 0.031250 0.375000
v -0.375000 0.031250 0.375000
v 0.250000 -0.031250 0.375000
v 0.250000 0.031250 0.375000
v -0.254495 -0.253406 0.370505
v -0.370505 -0.253406 0.254495
v -0.254495 -0.089344 0.370505
v -0.370505 -0.089344 0.254495
v -0.254495 -0.253406 0.370505
v -0.370505 -0.253406 0.254495
v -0.254495 -0.089344 0.370505
v -0.370505 -0.089344 0.254495
vt 0.125000 0.062500
vt 0.250000 0.062500
vt 0.250000 0.187500
vt 0.125000 0.187500
vt 0.500000 0.187500
vt 1.000000 0.187500
vt 1.000000 0.250000
vt 0.500000 0.250000
vt 0.375000 0.062500
vt 0.375000 0.187500
vt 0.500000 -0.000000
vt 1.000000 -0.000000
vt 1.000000 0.062500
vt 0.500000 0.062500
vt 1.000000 0.125000
vt 0.500000 0.125000
vt 0.312500 0.250000
vt 0.500000 0.187500
vt 0.437500 0.250000
vt 0.000000 0.062500
vt 0.031250 0.000000
vt 0.093750 0.000000
vt 0.156250 0.000000
vt 0.218750 0.000000
vt 0.281250 0.000000
vt 0.343750 0.000000
vt 0.812500 0.437500
vt 0.875000 0.437500
vt 0.875000 0.500000
vt 0.812500 0.500000
vt 0.000000 0.187500
vt 0.062500 0.250000
vt 0.500000 0.062500
vt 0.187500 0.250000
vt 0.406250 0.000000
vt 0.468750 0.000000
vt -0.000000 0.750000
vt 0.187500 0.750000
vt 0.187500 0.937500
vt -0.000000 0.937500
vt -0.000000 0.750000
vt -0.000000 0.937500
vt 0.187500 0.937500
vt 0.187500 0.750000
vt 0.125000 0.062500
vt 0.250000 0.062500
vt 0.250000 0.187500
vt 0.125000 0.187500
vt 0.500000 0.187500
vt 1.000000 0.187500
vt 1.000000 0.250000
vt 0.500000 0.250000
vt 0.375000 0.062500
vt 0.375000 0.187500
vt 0.500000 -0.000000
vt 1.000000 -0.000000
vt 1.000000 0.062500
vt 0.500000 0.062500
vt 1.000000 0.125000
vt 0.500000 0.125000
vt 0.312500 0.250000
vt 0.500000 0.187500
vt 0.437500 0.250000
vt 0.000000 0.062500
vt 0.031250 0.000000
vt 0.093750 0.000000
vt 0.156250 0.000000
vt 0.218750 0.000000
vt 0.281250 0.000000
vt 0.343750 0.000000
vt 0.812500 0.437500
vt 0.875000 0.437500
vt 0.875000 0.500000
vt 0.812500 0.500000
vt 0.000000 0.187500
vt 0.062500 0.250000
vt 0.500000 0.062500
vt 0.187500 0.250000
vt 0.406250 0.000000
vt 0.468750 0.000000
vt -0.000000 0.750000
vt 0.187500 0.750000
vt 0.187500 0.937500
vt -0.000000 0.937500
vt -0.000000 0.750000
vt -0.000000 0.937500
vt 0.187500 0.937500
vt 0.187500 0.750000
vt 0.125000 0.062500
vt 0.250000 0.062500
vt 0.250000 0.187500
vt 0.125000 0.187500
vt 0.500000 0.187500
vt 1.000000 0.187500
vt 1.000000 0.250000
vt 0.500000 0.250000
vt 0.375000 0.062500
vt 0.375000 0.187500
vt 0.500000 -0.000000
vt 1.000000 -0.000000
vt 1.000000 0.062500
vt 0.500000 0.062500
vt 1.000000 0.125000
vt 0.500000 0.125000
vt 0.312500 0.250000
vt 0.500000 0.187500
vt 0.437500 0.250000
vt 0.000000 0.062500
vt 0.031250 0.000000
vt 0.093750 0.000000
vt 0.156250 0.000000
vt 0.218750 0.000000
vt 0.281250 0.000000
vt 0.343750 0.000000
vt 0.812500 0.437500
vt 0.875000 0.437500
vt 0.875000 0.500000
vt 0.812500 0.500000
vt 0.000000 0.187500
vt 0.062500 0.250000
vt 0.500000 0.062500
vt 0.187500 0.250000
vt 0.406250 0.000000
vt 0.468750 0.000000
vt -0.000000 0.750000
vt 0.187500 0.750000
vt 0.187500 0.937500
vt -0.000000 0.937500
vt -0.000000 0.750000
vt -0.000000 0.937500
vt 0.187500 0.937500
vt 0.187500 0.750000
vt 0.125000 0.062500
vt 0.250000 0.062500
vt 0.250000 0.187500
vt 0.125000 0.187500
vt 0.500000 0.187500
vt 1.000000 0.187500
vt 1.000000 0.250000
vt 0.500000 0.250000
vt 0.375000 0.062500
vt 0.375000 0.187500
vt 0.500000 -0.000000
vt 1.000000 -0.000000
vt 1.000000 0.062500
vt 0.500000 0.062500
vt 1.000000 0.125000
vt 0.500000 0.125000
vt 0.312500 0.250000
vt 0.500000 0.187500
vt 0.437500 0.250000
vt 0.000000 0.062500
vt 0.031250 0.000000
vt 0.093750 0.000000
vt 0.156250 0.000000
vt 0.218750 0.000000
vt 0.281250 0.000000
vt 0.343750 0.000000
vt 0.812500 0.437500
vt 0.875000 0.437500
vt 0.875000 0.500000
vt 0.812500 0.500000
vt 0.000000 0.187500
vt 0.062500 0.250000
vt 0.500000 0.062500
vt 0.187500 0.250000
vt 0.406250 0.000000
vt 0.468750 0.000000
vt -0.000000 0.750000
vt 0.187500 0.750000
vt 0.187500 0.937500
vt -0.000000 0.937500
vt -0.000000 0.750000
vt -0.000000 0.937500
vt 0.187500 0.937500
vt 0.187500 0.750000
vn 1.0000 0.0000 0.0000
vn 0.0000 1.0000 0.0000
vn 0.0000 0.0000 -1.0000
vn -1.0000 0.0000 0.0000
vn 0.0000 -1.0000 0.0000
vn 0.0000 0.7071 -0.7071
vn -0.7071 0.7071 0.0000
vn 0.0000 -0.4501 0.8930
vn 0.8930 -0.4501 0.0000
vn 0.0000 -0.4501 -0.8930
vn 0.0000 0.7071 0.7071
vn 0.7071 0.7071 0.0000
vn -0.8930 -0.4501 0.0000
vn 0.0000 0.0000 1.0000
vn -0.7071 0.0000 -0.7071
vn 0.7071 0.0000 0.7071
vn -0.7071 0.0000 0.7071
vn 0.7071 0.0000 -0.7071
usemtl EXTENSION
s off
f 8/1/1 7/2/1 18/3/1 19/4/1
f 16/5/2 21/6/2 2/7/2 14/8/2
f 18/3/3 7/2/3 5/9/3 1/10/3
f 14/11/4 2/12/4 3/13/4 13/14/4
f 3/13/5 20/15/5 15/16/5 13/14/5
f 18/3/6 1/10/6 4/17/6
f 1/10/7 17/18/7 4/19/7
f 20/15/1 21/6/1 16/5/1 15/16/1
f 8/1/8 6/20/8 10/21/8 12/22/8
f 7/2/9 8/1/9 12/23/9 11/24/9
f 5/9/10 7/2/10 11/25/10 9/26/10
f 10/27/5 9/28/5 11/29/5 12/30/5
f 17/31/11 19/4/11 4/32/11
f 6/33/4 17/18/4 1/10/4 5/9/4
f 19/4/12 18/3/12 4/34/12
f 6/33/13 5/9/13 9/35/13 10/36/13
f 19/4/14 17/31/14 6/20/14 8/1/14
f 22/37/15 23/38/15 25/39/15 24/40/15
f 26/41/16 28/42/16 29/43/16 27/44/16
f 37/45/3 36/46/3 47/47/3 48/48/3
f 45/49/2 50/50/2 31/51/2 43/52/2
f 47/47/4 36/46/4 34/53/4 30/54/4
f 43/55/14 31/56/14 32/57/14 42/58/14
f 32/57/5 49/59/5 44/60/5 42/58/5
f 47/47/7 30/54/7 33/61/7
f 30/54/11 46/62/11 33/63/11
f 49/59/3 50/50/3 45/49/3 44/60/3
f 37/45/9 35/64/9 39/65/9 41/66/9
f 36/46/10 37/45/10 41/67/10 40/68/10
f 34/53/13 36/46/13 40/69/13 38/70/13
f 39/71/5 38/72/5 40/73/5 41/74/5
f 46/75/12 48/48/12 33/76/12
f 35/77/14 46/62/14 30/54/14 34/53/14
f 48/48/6 47/47/6 33/78/6
f 35/77/8 34/53/8 38/79/8 39/80/8
f 48/48/1 46/75/1 35/64/1 37/45/1
f 51/81/17 52/82/17 54/83/17 53/84/17
f 55/85/18 57/86/18 58/87/18 56/88/18
f 66/89/4 65/90/4 76/91/4 77/92/4
f 74/93/2 79/94/2 60/95/2 72/96/2
f 76/91/14 65/90/14 63/97/14 59/98/14
f 72/99/1 60/100/1 61/101/1 71/102/1
f 61/101/5 78/103/5 73/104/5 71/102/5
f 76/91/11 59/98/11 62/105/11
f 59/98/12 75/106/12 62/107/12
f 78/103/4 79/94/4 74/93/4 73/104/4
f 66/89/10 64/108/10 68/109/10 70/110/10
f 65/90/13 66/89/13 70/111/13 69/112/13
f 63/97/8 65/90/8 69/113/8 67/114/8
f 68/115/5 67/116/5 69/117/5 70/118/5
f 75/119/6 77/92/6 62/120/6
f 64/121/1 75/106/1 59/98/1 63/97/1
f 77/92/7 76/91/7 62/122/7
f 64/121/9 63/97/9 67/123/9 68/124/9
f 77/92/3 75/119/3 64/108/3 66/89/3
f 80/125/16 81/126/16 83/127/16 82/128/16
f 84/129/15 86/130/15 87/131/15 85/132/15
f 95/133/14 94/134/14 105/135/14 106/136/14
f 103/137/2 108/138/2 89/139/2 101/140/2
f 105/135/1 94/134/1 92/141/1 88/142/1
f 101/143/3 89/144/3 90/145/3 100/146/3
f 90/145/5 107/147/5 102/148/5 100/146/5
f 105/135/12 88/142/12 91/149/12
f 88/142/6 104/150/6 91/151/6
f 107/147/14 108/138/14 103/137/14 102/148/14
f 95/133/13 93/152/13 97/153/13 99/154/13
f 94/134/8 95/133/8 99/155/8 98/156/8
f 92/141/9 94/134/9 98/157/9 96/158/9
f 97/159/5 96/160/5 98/161/5 99/162/5
f 104/163/7 106/136/7 91/164/7
f 93/165/3 104/150/3 88/142/3 92/141/3
f 106/136/11 105/135/11 91/166/11
f 93/165/10 92/141/10 96/167/10 97/168/10
f 106/136/4 104/163/4 93/152/4 95/133/4
f 109/169/18 110/170/18 112/171/18 111/172/18
f 113/173/17 115/174/17 116/175/17 114/176/17
