# Blender v2.80 (sub 75) OBJ File: 'wands.blend'
# www.blender.org
mtllib dowsingrod.mtl
o DOWSING_ROD_DOWSING_ROD_Cube.001
v 0.468750 0.625000 0.531250
v 0.531250 0.625000 0.531250
v 0.531250 0.625000 0.468750
v 0.468750 0.625000 0.468750
v 0.531250 0.500000 0.468750
v 0.531250 0.500000 0.531250
v 0.468750 0.500000 0.468750
v 0.468750 0.500000 0.531250
v 0.468750 -0.000000 0.531250
v 0.468750 -0.000000 0.468750
v 0.531250 -0.000000 0.468750
v 0.531250 -0.000000 0.531250
v 0.411612 0.625000 0.562500
v 0.500000 0.713388 0.562500
v 0.500000 0.713388 0.437500
v 0.411612 0.625000 0.437500
v 0.588388 0.625000 0.437500
v 0.500000 0.536612 0.437500
v 0.588388 0.625000 0.562500
v 0.500000 0.536612 0.562500
v 0.455806 0.625000 0.578125
v 0.500000 0.669194 0.578125
v 0.500000 0.669194 0.421875
v 0.455806 0.625000 0.421875
v 0.544194 0.625000 0.421875
v 0.500000 0.580806 0.421875
v 0.544194 0.625000 0.578125
v 0.500000 0.580806 0.578125
v 0.389515 0.691291 0.531250
v 0.345320 0.735485 0.531250
v 0.345320 0.735485 0.468750
v 0.389515 0.691291 0.468750
v 0.389515 0.779680 0.468750
v 0.433709 0.735485 0.468750
v 0.389515 0.779680 0.531250
v 0.433709 0.735485 0.531250
v 0.477903 0.602903 0.468750
v 0.522097 0.647097 0.468750
v 0.522097 0.647097 0.531250
v 0.477903 0.602903 0.531250
v 0.389515 0.904680 0.531250
v 0.389515 0.904680 0.468750
v 0.389515 0.967180 0.468750
v 0.389515 0.967180 0.531250
v 0.610485 0.967180 0.468750
v 0.610485 0.967180 0.531250
v 0.641735 1.029680 0.500000
v 0.327015 0.904680 0.468750
v 0.327015 0.904680 0.531250
v 0.327015 0.967180 0.531250
v 0.327015 0.967180 0.468750
v 0.327015 0.779680 0.531250
v 0.327015 0.779680 0.468750
v 0.477903 0.691291 0.531250
v 0.433709 0.647097 0.531250
v 0.477903 0.691291 0.468750
v 0.433709 0.647097 0.468750
v 0.531250 0.375000 0.531250
v 0.468750 0.375000 0.531250
v 0.468750 0.375000 0.468750
v 0.610485 0.691291 0.531250
v 0.610485 0.691291 0.468750
v 0.654680 0.735485 0.468750
v 0.654680 0.735485 0.531250
v 0.566291 0.735485 0.468750
v 0.610485 0.779680 0.468750
v 0.566291 0.735485 0.531250
v 0.610485 0.779680 0.531250
v 0.610485 0.904680 0.531250
v 0.610485 0.904680 0.468750
v 0.672985 0.904680 0.468750
v 0.672985 0.967180 0.468750
v 0.672985 0.967180 0.531250
v 0.672985 0.904680 0.531250
v 0.672985 0.779680 0.468750
v 0.672985 0.779680 0.531250
v 0.522097 0.691291 0.531250
v 0.566291 0.647097 0.531250
v 0.522097 0.691291 0.468750
v 0.566291 0.647097 0.468750
v 0.358265 1.029680 0.500000
v 0.531250 0.375000 0.468750
v 0.531250 0.187500 0.468750
v 0.531250 0.187500 0.531250
v 0.468750 0.187500 0.531250
v 0.468750 0.187500 0.468750
v 0.542299 0.375000 0.542299
v 0.542299 0.375000 0.457701
v 0.542299 0.187500 0.457701
v 0.542299 0.187500 0.542299
v 0.457701 0.375000 0.542299
v 0.457701 0.187500 0.542299
v 0.457701 0.187500 0.457701
v 0.457701 0.375000 0.457701
vt 0.531250 1.000000
vt 0.531250 0.750000
vt 0.531250 0.500000
vt 0.531250 0.250000
vt 0.375000 0.500000
vt 0.375000 0.375000
vt 0.250000 0.375000
vt 0.250000 0.500000
vt 0.500000 0.500000
vt 0.500000 0.375000
vt 0.125000 0.500000
vt 0.125000 0.375000
vt 0.000000 0.375000
vt 0.000000 0.500000
vt 0.250000 0.250000
vt 0.250000 0.125000
vt 0.375000 0.125000
vt 0.375000 0.250000
vt 0.125000 0.500000
vt 0.375000 0.500000
vt 0.375000 0.750000
vt 0.125000 0.750000
vt 0.375000 0.750000
vt 0.375000 1.000000
vt 0.125000 1.000000
vt 0.125000 0.750000
vt 0.125000 0.250000
vt 0.375000 0.250000
vt 0.375000 0.500000
vt 0.125000 0.500000
vt 0.125000 0.750000
vt 0.375000 0.750000
vt 0.375000 1.000000
vt 0.125000 1.000000
vt 0.125000 0.500000
vt 0.375000 0.500000
vt 0.375000 0.750000
vt 0.125000 0.750000
vt 0.250000 0.500000
vt 0.500000 0.500000
vt 0.500000 0.750000
vt 0.250000 0.750000
vt 0.625000 0.875000
vt 0.750000 0.875000
vt 0.750000 1.000000
vt 0.625000 1.000000
vt 0.750000 0.750000
vt 0.875000 0.750000
vt 0.875000 0.875000
vt 0.750000 0.875000
vt 0.625000 0.750000
vt 0.750000 0.750000
vt 0.750000 0.875000
vt 0.625000 0.875000
vt 0.750000 0.750000
vt 0.875000 0.750000
vt 0.875000 0.875000
vt 0.750000 0.875000
vt 0.500000 0.750000
vt 0.500000 0.875000
vt 0.750000 0.875000
vt 0.875000 0.875000
vt 0.875000 1.000000
vt 0.750000 1.000000
vt 0.500000 0.250000
vt 0.500000 0.375000
vt 0.375000 0.375000
vt 0.375000 0.250000
vt 0.250000 0.375000
vt 0.250000 0.250000
vt 0.125000 0.375000
vt 0.125000 0.250000
vt 0.000000 0.375000
vt 0.000000 0.250000
vt 0.125000 0.500000
vt 0.375000 0.500000
vt 0.375000 0.750000
vt 0.125000 0.750000
vt 0.750000 0.625000
vt 0.875000 0.625000
vt 0.875000 0.750000
vt 0.750000 0.750000
vt 0.750000 0.875000
vt 0.750000 0.750000
vt 0.687500 0.812500
vt 0.500000 0.625000
vt 0.625000 0.625000
vt 0.625000 0.750000
vt 0.500000 0.750000
vt 1.000000 0.625000
vt 1.000000 0.750000
vt 0.125000 0.375000
vt 0.250000 0.375000
vt 0.250000 0.500000
vt 0.125000 0.500000
vt 0.250000 0.500000
vt 0.332107 0.375000
vt 0.375000 0.500000
vt 0.105393 0.375000
vt 0.125000 0.500000
vt 0.000000 0.500000
vt 0.125000 0.750000
vt 0.000000 0.750000
vt 0.125000 0.000000
vt 0.125000 0.250000
vt 0.000000 0.250000
vt 0.000000 0.000000
vt 0.125000 0.000000
vt 0.125000 0.250000
vt 0.000000 0.250000
vt 0.000000 0.000000
vt 0.750000 0.750000
vt 0.750000 0.625000
vt 0.875000 0.625000
vt 0.875000 0.750000
vt 0.625000 0.750000
vt 0.625000 0.625000
vt 0.500000 0.750000
vt 0.500000 0.625000
vt 0.125000 0.000000
vt 0.125000 0.250000
vt 0.000000 0.250000
vt 0.000000 0.000000
vt 1.000000 0.625000
vt 1.000000 0.750000
vt 0.250000 0.625000
vt 0.250000 0.875000
vt 0.125000 0.875000
vt 0.125000 0.625000
vt 0.000000 0.875000
vt 0.000000 0.625000
vt 0.500000 0.250000
vt 0.375000 0.250000
vt 0.375000 0.375000
vt 0.500000 0.375000
vt 0.250000 0.250000
vt 0.250000 0.375000
vt 0.125000 0.250000
vt 0.125000 0.375000
vt 0.000000 0.250000
vt 0.000000 0.375000
vt 0.750000 0.625000
vt 0.875000 0.750000
vt 0.875000 0.625000
vt 0.500000 0.625000
vt 0.500000 0.750000
vt 0.625000 0.750000
vt 0.625000 0.625000
vt 1.000000 0.750000
vt 1.000000 0.625000
vt 0.125000 0.375000
vt 0.125000 0.500000
vt 0.250000 0.500000
vt 0.250000 0.375000
vt 0.250000 0.500000
vt 0.375000 0.500000
vt 0.332107 0.375000
vt 0.105393 0.375000
vt 0.000000 0.500000
vt 0.125000 0.500000
vt 0.000000 0.750000
vt 0.125000 0.750000
vt 0.125000 0.000000
vt 0.000000 0.000000
vt 0.000000 0.250000
vt 0.125000 0.250000
vt 0.125000 0.000000
vt 0.000000 0.000000
vt 0.000000 0.250000
vt 0.125000 0.250000
vt 0.750000 0.750000
vt 0.875000 0.750000
vt 0.875000 0.625000
vt 0.750000 0.625000
vt 0.625000 0.750000
vt 0.625000 0.625000
vt 0.500000 0.750000
vt 0.500000 0.625000
vt 0.125000 0.000000
vt 0.000000 0.000000
vt 0.000000 0.250000
vt 0.125000 0.250000
vt 1.000000 0.750000
vt 1.000000 0.625000
vt 0.875000 1.000000
vt 0.750000 1.000000
vt 0.812500 0.937500
vt 0.625000 0.875000
vt 0.687500 0.812500
vt 0.750000 0.750000
vt 0.875000 0.750000
vt 0.812500 0.812500
vt 1.000000 0.875000
vt 1.000000 1.000000
vt 0.937500 0.937500
vt 0.875000 0.750000
vt 0.750000 0.750000
vt 0.812500 0.812500
vt 0.875000 0.875000
vt 0.875000 1.000000
vt 0.937500 0.937500
vt 0.750000 1.000000
vt 0.875000 1.000000
vt 0.812500 0.937500
vt 0.500000 0.625000
vt 0.500000 0.875000
vt 0.375000 0.875000
vt 0.375000 0.625000
vt 0.375000 0.000000
vt 0.375000 0.375000
vt 0.250000 0.375000
vt 0.250000 0.000000
vt 0.125000 0.375000
vt 0.125000 0.000000
vt 0.000000 0.375000
vt 0.000000 0.000000
vt 0.500000 0.000000
vt 0.500000 0.375000
vt 0.554337 0.741837
vt 0.554337 0.695663
vt 0.562500 0.687500
vt 0.562500 0.750000
vt 0.554337 0.741837
vt 0.554337 0.695663
vt 0.562500 0.687500
vt 0.562500 0.750000
vt 0.508163 0.695663
vt 0.500000 0.687500
vt 0.508163 0.695663
vt 0.508163 0.741837
vt 0.500000 0.750000
vt 0.500000 0.687500
vt 0.000000 0.437500
vt -0.000000 0.250000
vt 0.062500 0.250000
vt 0.062500 0.437500
vt 0.312500 0.250000
vt 0.312500 0.437500
vt 0.250000 0.437500
vt 0.250000 0.250000
vt 0.125000 0.250000
vt 0.125000 0.437500
vt 0.187500 0.250000
vt 0.187500 0.437500
vt 0.508163 0.741837
vt 0.500000 0.750000
vn 0.0000 1.0000 0.0000
vn 1.0000 0.0000 0.0000
vn 0.0000 0.0000 -1.0000
vn -1.0000 0.0000 0.0000
vn 0.0000 -1.0000 -0.0000
vn -0.7071 0.7071 0.0000
vn 0.7071 -0.7071 0.0000
vn 0.0000 0.0000 1.0000
vn -0.7071 -0.7071 0.0000
vn 0.7071 0.7071 0.0000
vn -0.8944 0.4472 0.0000
vn -0.9239 -0.3827 0.0000
vn 0.9239 -0.3827 0.0000
vn 0.0000 0.4472 -0.8944
vn 0.0000 0.4472 0.8944
vn 0.8944 0.4472 0.0000
usemtl MAIN
s 1
f 1/1/1 2/2/1 3/3/1 4/4/1
f 5/5/2 3/6/2 2/7/2 6/8/2
f 7/9/3 4/10/3 3/6/3 5/5/3
f 8/11/4 1/12/4 4/13/4 7/14/4
f 9/15/5 10/16/5 11/17/5 12/18/5
f 13/19/6 14/20/6 15/21/6 16/22/6
f 16/23/3 15/24/3 17/25/3 18/26/3
f 18/27/7 17/28/7 19/29/7 20/30/7
f 20/31/8 19/32/8 14/33/8 13/34/8
f 16/35/9 18/36/9 20/37/9 13/38/9
f 17/39/10 15/40/10 14/41/10 19/42/10
f 21/43/6 22/44/6 23/45/6 24/46/6
f 24/47/3 23/48/3 25/49/3 26/50/3
f 26/51/7 25/52/7 27/53/7 28/54/7
f 28/55/8 27/56/8 22/57/8 21/58/8
f 24/59/9 26/51/9 28/54/9 21/60/9
f 25/61/10 23/62/10 22/63/10 27/64/10
f 29/65/9 30/66/9 31/67/9 32/68/9
f 32/68/3 31/67/3 33/69/3 34/70/3
f 34/70/10 33/69/10 35/71/10 36/72/10
f 36/72/8 35/71/8 30/73/8 29/74/8
f 37/75/7 38/76/7 39/77/7 40/78/7
f 41/79/2 42/80/2 43/81/2 44/82/2
f 45/83/11 46/84/11 47/85/11
f 48/86/4 49/87/4 50/88/4 51/89/4
f 49/87/8 41/79/8 44/82/8 50/88/8
f 42/80/3 48/90/3 51/91/3 43/81/3
f 31/92/12 30/93/12 52/94/12 53/95/12
f 33/96/3 31/97/3 53/98/3
f 30/99/8 35/100/8 52/101/8
f 35/100/8 41/102/8 49/103/8 52/101/8
f 52/104/4 49/105/4 48/106/4 53/107/4
f 33/108/2 42/109/2 41/110/2 35/111/2
f 54/112/8 36/113/8 29/114/8 55/115/8
f 56/116/10 34/117/10 36/113/10 54/112/10
f 57/118/3 32/119/3 34/117/3 56/116/3
f 53/120/3 48/121/3 42/122/3 33/123/3
f 55/115/9 29/114/9 32/124/9 57/125/9
f 58/126/8 6/127/8 8/128/8 59/129/8
f 59/129/4 8/128/4 7/130/4 60/131/4
f 6/8/8 2/7/8 1/12/8 8/11/8
f 61/132/7 62/133/7 63/134/7 64/135/7
f 62/133/3 65/136/3 66/137/3 63/134/3
f 65/136/6 67/138/6 68/139/6 66/137/6
f 67/138/8 61/140/8 64/141/8 68/139/8
f 69/142/4 46/84/4 45/143/4 70/144/4
f 71/145/2 72/146/2 73/147/2 74/148/2
f 74/148/8 73/147/8 46/84/8 69/142/8
f 70/144/3 45/143/3 72/149/3 71/150/3
f 63/151/13 75/152/13 76/153/13 64/154/13
f 66/155/3 75/156/3 63/157/3
f 64/158/8 76/159/8 68/160/8
f 68/160/8 76/159/8 74/161/8 69/162/8
f 76/163/2 75/164/2 71/165/2 74/166/2
f 66/167/4 68/168/4 69/169/4 70/170/4
f 77/171/8 78/172/8 61/173/8 67/174/8
f 79/175/6 77/171/6 67/174/6 65/176/6
f 80/177/3 79/175/3 65/176/3 62/178/3
f 75/179/3 66/180/3 70/181/3 71/182/3
f 78/172/7 80/183/7 62/184/7 61/173/7
f 43/185/14 51/186/14 81/187/14
f 51/188/11 50/88/11 81/189/11
f 50/190/15 44/191/15 81/192/15
f 44/193/16 43/194/16 81/195/16
f 46/196/15 73/197/15 47/198/15
f 73/199/16 72/200/16 47/201/16
f 72/202/14 45/203/14 47/204/14
f 60/205/3 7/206/3 5/207/3 82/208/3
f 11/209/2 83/210/2 84/211/2 12/212/2
f 12/212/8 84/211/8 85/213/8 9/214/8
f 9/214/4 85/213/4 86/215/4 10/216/4
f 10/217/3 86/218/3 83/210/3 11/209/3
f 82/208/2 5/207/2 6/127/2 58/126/2
usemtl WAND
f 82/219/1 58/220/1 87/221/1 88/222/1
f 84/223/5 83/224/5 89/225/5 90/226/5
f 58/220/1 59/227/1 91/228/1 87/221/1
f 86/229/5 85/230/5 92/231/5 93/232/5
f 91/233/8 92/234/8 90/235/8 87/236/8
f 92/237/4 91/238/4 94/239/4 93/240/4
f 90/235/2 89/241/2 88/242/2 87/236/2
f 89/243/3 93/240/3 94/239/3 88/244/3
f 83/224/5 86/229/5 93/232/5 89/225/5
f 60/245/1 82/219/1 88/222/1 94/246/1
f 85/230/5 84/223/5 90/226/5 92/231/5
f 59/227/1 60/245/1 94/246/1 91/228/1
