# Blender v2.80 (sub 75) OBJ File: 'tables.blend'
# www.blender.org
mtllib table_simple_center.mtl
o CENTER_TABLE_TOP_Cube.013
v -0.250000 0.812500 -0.500000
v -0.250000 1.000000 -0.500000
v 0.000000 0.812500 -0.250000
v -0.250000 0.812500 0.500000
v -0.500000 1.000000 -0.500000
v 0.250000 0.812500 -0.500000
v 0.250000 1.000000 -0.500000
v -0.500000 0.812500 -0.500000
v -0.250000 1.000000 0.500000
v 0.500000 1.000000 -0.500000
v 0.500000 0.812500 -0.500000
v 0.000000 1.000000 -0.500000
v 0.000000 0.812500 -0.500000
v 0.500000 1.000000 0.000000
v 0.000000 0.812500 0.250000
v -0.500000 1.000000 0.500000
v 0.500000 0.812500 0.000000
v 0.250000 0.812500 0.500000
v 0.000000 1.000000 0.000000
v 0.000000 0.812500 0.000000
v 0.250000 1.000000 0.500000
v -0.500000 0.812500 0.500000
v 0.250000 0.812500 0.000000
v -0.500000 1.000000 0.000000
v 0.250000 1.000000 0.000000
v 0.250000 1.000000 -0.250000
v 0.500000 1.000000 -0.250000
v 0.000000 1.000000 -0.250000
v 0.500000 0.812500 -0.250000
v 0.250000 0.812500 -0.250000
v 0.500000 1.000000 0.500000
v -0.500000 0.812500 0.000000
v 0.500000 0.812500 0.500000
v 0.000000 1.000000 0.500000
v -0.250000 0.812500 0.000000
v -0.250000 1.000000 0.000000
v -0.250000 1.000000 -0.250000
v -0.500000 1.000000 -0.250000
v -0.500000 0.812500 -0.250000
v -0.250000 0.812500 -0.250000
v 0.000000 0.812500 0.500000
v 0.250000 1.000000 0.250000
v 0.500000 1.000000 0.250000
v 0.000000 1.000000 0.250000
v 0.500000 0.812500 0.250000
v 0.250000 0.812500 0.250000
v -0.250000 1.000000 0.250000
v -0.500000 1.000000 0.250000
v -0.500000 0.812500 0.250000
v -0.250000 0.812500 0.250000
vt 1.000000 0.812500
vt 1.000000 0.562500
vt 0.750000 0.562500
vt 0.750000 0.812500
vt 1.000000 0.562500
vt 0.750000 0.562500
vt 1.000000 0.812500
vt 1.000000 0.562500
vt 0.750000 0.562500
vt 0.750000 0.812500
vt 1.000000 0.562500
vt 1.000000 0.750000
vt 0.750000 0.750000
vt 0.750000 0.562500
vt 0.750000 0.812500
vt 1.000000 0.812500
vt 1.000000 0.562500
vt 0.750000 0.562500
vt 1.000000 0.812500
vt 0.750000 0.812500
vt 0.750000 0.562500
vt 1.000000 0.562500
vt 1.000000 0.750000
vt 0.750000 0.750000
vt 0.750000 0.562500
vt 0.750000 0.562500
vt 0.750000 0.750000
vt 1.000000 0.750000
vt 0.750000 0.812500
vt 1.000000 0.562500
vt 1.000000 0.812500
vt 1.000000 0.562500
vt 0.750000 0.562500
vt 0.750000 0.812500
vt 1.000000 0.812500
vt 1.000000 0.562500
vt 0.750000 0.562500
vt 0.750000 0.812500
vt 1.000000 0.812500
vt 1.000000 0.812500
vt 0.750000 0.562500
vt 1.000000 0.562500
vt 1.000000 0.812500
vt 1.000000 0.562500
vt 1.000000 0.812500
vt 1.000000 0.812500
vt 0.750000 0.562500
vt 1.000000 0.812500
vt 1.000000 0.562500
vt 0.750000 0.562500
vt 0.750000 0.562500
vt 0.750000 0.750000
vt 1.000000 0.562500
vt 1.000000 0.812500
vt 1.000000 0.750000
vt 0.750000 0.750000
vt 0.750000 0.562500
vt 0.750000 0.812500
vt 1.000000 0.812500
vt 0.750000 0.562500
vt 1.000000 0.812500
vt 1.000000 0.750000
vt 0.750000 0.562500
vt 0.750000 0.750000
vt 1.000000 0.750000
vt 1.000000 0.812500
vt 0.750000 0.562500
vt 1.000000 0.750000
vt 0.750000 0.562500
vt 0.750000 0.562500
vt 0.750000 0.750000
vt 1.000000 0.562500
vt 1.000000 0.562500
vt 1.000000 0.562500
vt 0.750000 0.750000
vt 1.000000 0.750000
vt 1.000000 0.562500
vt 1.000000 0.562500
vn 0.0000 1.0000 0.0000
vn -1.0000 0.0000 0.0000
vn 0.0000 -1.0000 0.0000
vn 1.0000 0.0000 0.0000
vn 0.0000 0.0000 1.0000
vn 0.0000 0.0000 -1.0000
usemtl MAIN
s off
f 28/1/1 12/2/1 2/3/1 37/4/1
f 19/5/1 28/1/1 37/4/1 36/6/1
f 44/7/1 34/8/1 21/9/1 42/10/1
f 24/11/2 32/12/2 49/13/2 48/14/2
f 40/15/3 1/16/3 13/17/3 3/18/3
f 19/5/1 25/19/1 26/20/1 28/21/1
f 14/22/4 17/23/4 29/24/4 27/25/4
f 34/8/5 9/26/5 4/27/5 41/28/5
f 47/29/1 48/14/1 16/30/1 9/31/1
f 17/32/3 23/33/3 30/34/3 29/35/3
f 32/36/3 35/37/3 50/38/3 49/39/3
f 30/34/3 3/40/3 13/17/3 6/41/3
f 26/20/1 27/25/1 10/42/1 7/43/1
f 42/10/1 21/9/1 31/44/1 43/45/1
f 19/5/1 36/46/1 47/29/1 44/47/1
f 50/38/3 15/48/3 41/49/3 4/50/3
f 44/47/1 47/29/1 9/31/1 34/8/1
f 24/11/2 38/51/2 39/52/2 32/12/2
f 37/4/1 2/3/1 5/53/1 38/54/1
f 12/2/6 13/55/6 1/56/6 2/3/6
f 28/21/1 26/20/1 7/43/1 12/2/1
f 17/32/3 45/57/3 46/58/3 23/59/3
f 32/36/3 39/60/3 40/15/3 35/61/3
f 8/62/6 5/53/6 2/3/6 1/56/6
f 12/2/6 7/63/6 6/64/6 13/55/6
f 11/65/6 6/64/6 7/63/6 10/42/6
f 46/58/3 18/66/3 41/49/3 15/67/3
f 27/25/4 29/24/4 11/65/4 10/42/4
f 22/68/5 4/27/5 9/26/5 16/30/5
f 19/5/1 44/7/1 42/10/1 25/69/1
f 14/22/4 43/70/4 45/71/4 17/23/4
f 29/35/3 30/34/3 6/41/3 11/72/3
f 25/19/1 14/22/1 27/25/1 26/20/1
f 23/33/3 20/73/3 3/40/3 30/34/3
f 38/51/2 5/53/2 8/62/2 39/52/2
f 39/60/3 8/74/3 1/16/3 40/15/3
f 36/6/1 37/4/1 38/54/1 24/11/1
f 35/61/3 40/15/3 3/18/3 20/73/3
f 34/8/5 41/28/5 18/75/5 21/9/5
f 33/76/5 31/44/5 21/9/5 18/75/5
f 43/70/4 31/44/4 33/76/4 45/71/4
f 45/57/3 33/77/3 18/66/3 46/58/3
f 25/69/1 42/10/1 43/45/1 14/22/1
f 23/59/3 46/58/3 15/67/3 20/73/3
f 48/14/2 49/13/2 22/68/2 16/30/2
f 49/39/3 50/38/3 4/50/3 22/78/3
f 36/46/1 24/11/1 48/14/1 47/29/1
f 35/37/3 20/73/3 15/48/3 50/38/3
