# Blender v2.80 (sub 75) OBJ File: 'wands.blend'
# www.blender.org
mtllib wand_var1.mtl
o WAND_VAR1_Cube.002
v 0.500000 0.031250 0.500000
v 0.468750 0.875000 0.531250
v 0.468750 0.875000 0.468750
v 0.531250 0.875000 0.531250
v 0.531250 0.875000 0.468750
v 0.468750 0.062500 0.531250
v 0.468750 0.062500 0.468750
v 0.531250 0.062500 0.468750
v 0.531250 0.062500 0.531250
v 0.468750 0.125000 0.531250
v 0.468750 0.750000 0.531250
v 0.468750 0.812500 0.531250
v 0.468750 0.812500 0.468750
v 0.468750 0.750000 0.468750
v 0.468750 0.125000 0.468750
v 0.531250 0.812500 0.468750
v 0.531250 0.750000 0.468750
v 0.531250 0.125000 0.468750
v 0.531250 0.812500 0.531250
v 0.531250 0.750000 0.531250
v 0.531250 0.125000 0.531250
v 0.468750 0.625000 0.531250
v 0.468750 0.687500 0.531250
v 0.531250 0.687500 0.468750
v 0.531250 0.625000 0.468750
v 0.531250 0.687500 0.531250
v 0.531250 0.625000 0.531250
v 0.468750 0.687500 0.468750
v 0.468750 0.625000 0.468750
v 0.468750 0.875000 0.531250
v 0.468750 0.875000 0.468750
v 0.531250 0.875000 0.531250
v 0.531250 0.875000 0.468750
v 0.406250 0.937500 0.406250
v 0.593750 0.937500 0.406250
v 0.593750 0.937500 0.593750
v 0.406250 0.937500 0.593750
v 0.500000 0.908832 0.468750
v 0.500000 0.953026 0.512944
v 0.500000 0.953026 0.424556
v 0.500000 0.997220 0.468750
v 0.562500 0.908832 0.468750
v 0.562500 0.953026 0.512944
v 0.562500 0.953026 0.424556
v 0.562500 0.997220 0.468750
v 0.424556 0.953026 0.500000
v 0.468750 0.997220 0.500000
v 0.424556 0.953026 0.437500
v 0.468750 0.997220 0.437500
v 0.468750 0.908832 0.500000
v 0.512944 0.953026 0.500000
v 0.468750 0.908832 0.437500
v 0.512944 0.953026 0.437500
v 0.531250 0.908832 0.562500
v 0.487056 0.953026 0.562500
v 0.531250 0.908832 0.500000
v 0.487056 0.953026 0.500000
v 0.575444 0.953026 0.562500
v 0.531250 0.997220 0.562500
v 0.575444 0.953026 0.500000
v 0.531250 0.997220 0.500000
v 0.437500 0.953026 0.575444
v 0.437500 0.997220 0.531250
v 0.437500 0.908832 0.531250
v 0.437500 0.953026 0.487056
v 0.500000 0.953026 0.575444
v 0.500000 0.997220 0.531250
v 0.500000 0.908832 0.531250
v 0.500000 0.953026 0.487056
v 0.468750 0.968750 0.531250
v 0.468750 0.968750 0.468750
v 0.531250 0.968750 0.468750
v 0.531250 0.968750 0.531250
v 0.468750 1.031250 0.531250
v 0.468750 1.031250 0.468750
v 0.531250 1.031250 0.468750
v 0.531250 1.031250 0.531250
vt 0.125000 0.625000
vt 0.125000 0.750000
vt 0.000000 0.750000
vt 0.000000 0.625000
vt 0.500000 0.625000
vt 0.500000 0.750000
vt 0.375000 0.750000
vt 0.375000 0.625000
vt 0.250000 0.750000
vt 0.250000 0.625000
vt 0.812500 0.937500
vt 0.875000 1.000000
vt 0.750000 1.000000
vt 0.937501 0.937500
vt 1.000000 1.000000
vt 0.937501 0.812500
vt 1.000000 0.875000
vt 0.875000 0.875000
vt 1.000000 1.000000
vt 0.875000 1.000000
vt 0.750000 0.625000
vt 0.750000 0.750000
vt 0.625000 0.750000
vt 0.625000 0.625000
vt 0.250000 0.875000
vt 0.250000 1.000000
vt 0.125000 1.000000
vt 0.125000 0.875000
vt 0.750000 0.625000
vt 0.750000 0.750000
vt 0.625000 0.750000
vt 0.625000 0.625000
vt 0.875000 0.625000
vt 0.875000 0.750000
vt 0.375000 0.875000
vt 0.375000 1.000000
vt 0.875000 0.625000
vt 0.875000 0.750000
vt 1.000000 0.625000
vt 1.000000 0.750000
vt 0.500000 0.875000
vt 0.500000 1.000000
vt 1.000000 0.625000
vt 1.000000 0.750000
vt 0.500000 0.750000
vt 0.500000 0.625000
vt 0.000000 1.000000
vt 0.000000 0.875000
vt 0.500000 0.750000
vt 0.500000 0.625000
vt 0.125000 0.000000
vt 0.125000 1.000000
vt 0.000000 1.000000
vt 0.000000 0.000000
vt 0.625000 0.625000
vt 0.625000 0.750000
vt 0.500000 0.750000
vt 0.500000 0.625000
vt 0.500000 0.000000
vt 0.500000 1.000000
vt 0.375000 1.000000
vt 0.375000 0.000000
vt 1.000000 0.625000
vt 1.000000 0.750000
vt 0.875000 0.750000
vt 0.875000 0.625000
vt 0.250000 1.000000
vt 0.250000 0.000000
vt 0.750000 0.750000
vt 0.750000 0.625000
vt 0.625000 0.375000
vt 0.625000 0.000000
vt 1.000000 0.000000
vt 1.000000 0.375000
vt 0.625000 0.250003
vt 0.625000 0.125000
vt 0.750000 -0.000000
vt 0.750000 0.375000
vt 0.875003 0.375000
vt 0.750000 0.375000
vt 0.625000 0.250000
vt 1.000000 0.250000
vt 0.749997 -0.000000
vt 0.875000 -0.000000
vt 1.000000 0.125000
vt 0.625000 0.125000
vt 0.875000 0.250003
vt 0.875000 0.125000
vt 1.000000 0.375000
vt 0.750000 0.750000
vt 0.875000 0.750000
vt 0.875000 0.875000
vt 0.750000 0.875000
vt 0.625000 0.875000
vt 0.750000 0.875000
vt 0.750000 1.000000
vt 0.625000 1.000000
vt 0.750000 0.750000
vt 0.875000 0.750000
vt 0.875000 0.875000
vt 0.750000 0.875000
vt 0.625000 0.750000
vt 0.750000 0.750000
vt 0.750000 0.875000
vt 0.625000 0.875000
vt 0.625000 0.750000
vt 0.750000 0.875000
vt 0.875000 1.000000
vt 0.750000 1.000000
vt 0.750000 0.875000
vt 0.875000 0.875000
vt 0.875000 1.000000
vt 0.750000 1.000000
vt 0.875000 0.750000
vt 1.000000 0.750000
vt 1.000000 0.875000
vt 0.875000 0.875000
vt 0.750000 0.750000
vt 0.875000 0.750000
vt 0.875000 0.875000
vt 0.750000 0.875000
vt 0.875000 0.750000
vt 1.000000 0.750000
vt 1.000000 0.875000
vt 0.875000 0.875000
vt 0.750000 0.750000
vt 0.875000 0.750000
vt 0.875000 0.875000
vt 0.875000 0.875000
vt 1.000000 0.875000
vt 1.000000 1.000000
vt 0.875000 1.000000
vt 0.500000 0.750000
vt 0.625000 0.750000
vt 0.625000 0.875000
vt 0.500000 0.875000
vt 0.625000 0.750000
vt 0.750000 0.750000
vt 0.750000 0.875000
vt 0.625000 0.875000
vt 0.500000 0.875000
vt 0.625000 0.875000
vt 0.625000 1.000000
vt 0.500000 1.000000
vt 0.625000 0.750000
vt 0.750000 0.750000
vt 0.750000 0.875000
vt 0.625000 0.875000
vt 0.500000 0.750000
vt 0.625000 0.750000
vt 0.625000 0.875000
vt 0.500000 0.875000
vt 0.750000 0.875000
vt 0.750000 1.000000
vt 0.750000 0.750000
vt 0.875000 0.750000
vt 0.875000 0.875000
vt 0.750000 0.875000
vt 0.750000 0.750000
vt 0.875000 0.750000
vt 0.875000 0.875000
vt 0.750000 0.875000
vt 0.750000 0.750000
vt 0.875000 0.750000
vt 0.875000 0.875000
vt 0.750000 0.875000
vt 0.625000 0.875000
vt 0.750000 0.875000
vt 0.750000 1.000000
vt 0.625000 1.000000
vt 0.625000 0.750000
vt 0.625000 0.875000
vt 0.750000 0.875000
vt 0.875000 1.000000
vt 0.750000 1.000000
vt 0.500000 0.875000
vt 0.625000 0.875000
vt 0.625000 1.000000
vt 0.500000 1.000000
vt 0.750000 0.875000
vt 0.875000 0.875000
vt 0.875000 1.000000
vt 0.750000 1.000000
vt 0.625000 0.875000
vt 0.750000 0.875000
vt 0.750000 1.000000
vt 0.625000 1.000000
vt 0.875000 0.875000
vt 1.000000 0.875000
vt 1.000000 1.000000
vt 0.875000 1.000000
vn -1.0000 0.0000 0.0000
vn 0.0000 0.0000 -1.0000
vn 1.0000 0.0000 0.0000
vn 0.0000 0.0000 1.0000
vn 0.0000 -0.7071 0.7071
vn 0.7071 -0.7071 0.0000
vn 0.0000 -0.7071 -0.7071
vn -0.7071 -0.7071 0.0000
vn 0.0000 1.0000 0.0000
vn 0.0000 0.7071 -0.7071
vn 0.0000 0.7071 0.7071
vn -0.7071 0.7071 0.0000
vn 0.7071 0.7071 0.0000
usemtl MAIN
s off
f 12/1/1 2/2/1 3/3/1 13/4/1
f 13/5/2 3/6/2 5/7/2 16/8/2
f 16/8/3 5/7/3 4/9/3 19/10/3
f 19/10/4 4/9/4 2/2/4 12/1/4
f 1/11/5 9/12/5 6/13/5
f 1/14/6 8/15/6 9/12/6
f 1/16/7 7/17/7 8/18/7
f 1/14/8 6/19/8 7/20/8
f 9/21/4 21/22/4 10/23/4 6/24/4
f 26/25/4 20/26/4 11/27/4 23/28/4
f 20/29/4 19/30/4 12/31/4 11/32/4
f 8/33/3 18/34/3 21/22/3 9/21/3
f 24/35/3 17/36/3 20/26/3 26/25/3
f 17/37/3 16/38/3 19/30/3 20/29/3
f 7/39/2 15/40/2 18/34/2 8/33/2
f 28/41/2 14/42/2 17/36/2 24/35/2
f 14/43/2 13/44/2 16/38/2 17/37/2
f 6/24/1 10/23/1 15/45/1 7/46/1
f 23/28/1 11/27/1 14/47/1 28/48/1
f 11/32/1 12/31/1 13/49/1 14/50/1
f 10/51/1 22/52/1 29/53/1 15/54/1
f 22/55/1 23/56/1 28/57/1 29/58/1
f 15/59/2 29/60/2 25/61/2 18/62/2
f 29/63/2 28/64/2 24/65/2 25/66/2
f 18/62/3 25/61/3 27/67/3 21/68/3
f 25/66/3 24/65/3 26/69/3 27/70/3
f 21/68/4 27/67/4 22/52/4 10/51/4
f 27/70/4 26/69/4 23/56/4 22/55/4
f 36/71/9 35/72/9 34/73/9 37/74/9
f 30/75/5 32/76/5 36/77/5 37/78/5
f 31/79/8 30/80/8 37/81/8 34/82/8
f 32/83/6 33/84/6 35/85/6 36/86/6
f 33/87/7 31/88/7 34/73/7 35/89/7
f 38/90/1 39/91/1 41/92/1 40/93/1
f 40/94/10 41/95/10 45/96/10 44/97/10
f 44/98/3 45/99/3 43/100/3 42/101/3
f 42/102/5 43/103/5 39/104/5 38/105/5
f 40/106/7 44/98/7 42/101/7 38/105/7
f 45/107/11 41/92/11 39/108/11 43/109/11
f 46/110/12 47/111/12 49/112/12 48/113/12
f 48/114/2 49/115/2 53/116/2 52/117/2
f 52/118/6 53/119/6 51/120/6 50/121/6
f 50/122/4 51/123/4 47/124/4 46/125/4
f 48/126/8 52/127/8 50/128/8 46/110/8
f 53/129/13 49/130/13 47/131/13 51/132/13
f 54/133/8 55/134/8 57/135/8 56/136/8
f 56/137/2 57/138/2 61/139/2 60/140/2
f 60/141/13 61/142/13 59/143/13 58/144/13
f 58/145/4 59/146/4 55/147/4 54/148/4
f 56/149/6 60/150/6 58/151/6 54/152/6
f 61/142/12 57/153/12 55/154/12 59/143/12
f 62/155/1 63/156/1 65/157/1 64/158/1
f 64/159/7 65/160/7 69/161/7 68/162/7
f 68/163/3 69/164/3 67/165/3 66/166/3
f 66/167/11 67/168/11 63/169/11 62/170/11
f 64/171/5 68/163/5 66/166/5 62/172/5
f 69/173/10 65/157/10 63/174/10 67/175/10
f 73/176/3 72/177/3 76/178/3 77/179/3
f 71/180/1 70/181/1 74/182/1 75/183/1
f 70/184/4 73/185/4 77/186/4 74/187/4
f 72/177/2 71/180/2 75/183/2 76/178/2
f 74/188/9 77/189/9 76/190/9 75/191/9
